<svg version="1.1" id="Layer_1" xmlns="http://www.w3.org/2000/svg" xmlns:xlink="http://www.w3.org/1999/xlink" x="0px" y="0px"
	 width="100%" viewBox="0 0 500 500" enable-background="new 0 0 500 500" xml:space="preserve">
<path fill="#000000" opacity="1.000000" stroke="none" 
	d="
M332.000000,501.000000 
	C221.333359,501.000000 111.166718,501.000000 1.000059,501.000000 
	C1.000039,334.333405 1.000039,167.666794 1.000020,1.000149 
	C167.666565,1.000099 334.333130,1.000099 500.999756,1.000050 
	C500.999847,167.666519 500.999847,334.333038 500.999939,500.999786 
	C444.833344,501.000000 388.666656,501.000000 332.000000,501.000000 
M258.964996,270.974060 
	C258.991150,276.462036 258.688385,281.981201 259.203949,287.422821 
	C259.412598,289.624664 261.407379,291.657349 262.589355,293.766998 
	C264.514160,292.562347 266.801147,291.693726 268.292236,290.086670 
	C271.973633,286.118958 275.331909,281.846527 278.741943,277.633331 
	C282.493408,272.998230 285.935791,269.201843 293.241974,269.596649 
	C300.800018,270.005096 306.009857,262.661102 305.973236,254.837158 
	C305.908661,241.033188 305.912720,227.228760 305.933990,213.424576 
	C305.948517,204.006165 299.698151,197.490707 289.995300,196.047287 
	C289.925934,186.350922 289.856567,176.654556 289.879883,166.217117 
	C287.724548,158.311951 283.308441,152.481232 274.798035,149.260757 
	C274.314240,149.168915 273.830444,148.996765 273.346619,148.996658 
	C240.330917,148.989212 207.315216,148.984970 174.299622,149.046112 
	C173.175705,149.048187 172.053040,149.719238 170.189560,150.041550 
	C159.739990,154.090668 156.121933,159.286713 156.104767,170.412018 
	C156.076263,188.891205 156.106247,207.370483 156.064514,225.849625 
	C156.037949,237.608261 161.367111,244.192764 174.048065,246.892929 
	C184.939178,246.899277 195.830276,246.905624 206.980972,247.813843 
	C207.000931,249.973526 207.041946,252.133255 207.037201,254.292877 
	C207.017822,263.107880 211.160858,268.018341 221.018539,269.874939 
	C233.652145,269.931061 246.285736,269.987213 258.964996,270.974060 
z"/>
<path fill="#0C66C1" opacity="1.000000" stroke="none" 
	d="
M173.131897,246.777100 
	C161.367111,244.192764 156.037949,237.608261 156.064514,225.849625 
	C156.106247,207.370483 156.076263,188.891205 156.104767,170.412018 
	C156.121933,159.286713 159.739990,154.090668 171.033325,150.047943 
	C206.288147,150.076508 240.699219,150.098679 275.110291,150.120850 
	C283.308441,152.481232 287.724548,158.311951 289.589905,166.929001 
	C289.195953,175.717239 289.027954,183.793686 289.039703,191.869873 
	C289.042206,193.573410 289.703522,195.276001 290.061249,196.979019 
	C299.698151,197.490707 305.948517,204.006165 305.933990,213.424576 
	C305.912720,227.228760 305.908661,241.033188 305.973236,254.837158 
	C306.009857,262.661102 300.800018,270.005096 293.241974,269.596649 
	C285.935791,269.201843 282.493408,272.998230 278.741943,277.633331 
	C275.331909,281.846527 271.973633,286.118958 268.292236,290.086670 
	C266.801147,291.693726 264.514160,292.562347 262.589355,293.766998 
	C261.407379,291.657349 259.412598,289.624664 259.203949,287.422821 
	C258.688385,281.981201 258.991150,276.462036 258.671722,270.202759 
	C245.617935,269.536957 232.857407,269.642487 220.096893,269.747986 
	C211.160858,268.018341 207.017822,263.107880 207.037201,254.292877 
	C207.041946,252.133255 207.000931,249.973526 206.564682,247.102753 
	C195.142899,246.520142 184.137390,246.648621 173.131897,246.777100 
M280.979614,165.110031 
	C280.047485,162.076904 278.873383,163.891327 277.538940,164.845779 
	C267.363831,172.123352 257.164825,179.367813 246.940262,186.575775 
	C242.406235,189.772095 237.795853,192.860092 233.220139,195.997269 
	C233.398407,196.294830 233.576691,196.592392 233.754974,196.889954 
	C249.510681,196.889954 265.266418,196.889954 281.763641,196.479477 
	C281.841766,190.987015 282.055481,185.492096 281.956848,180.002808 
	C281.871399,175.244705 281.431915,170.492966 280.979614,165.110031 
M271.594666,158.663879 
	C270.100372,158.108673 268.607635,157.074020 267.111511,157.069122 
	C237.535065,156.972107 207.958221,156.990891 178.381454,157.002136 
	C176.786011,157.002747 175.190613,157.143433 173.595200,157.218918 
	C173.387451,157.579117 173.179703,157.939316 172.971939,158.299530 
	C173.578888,158.580841 174.185822,158.862167 175.219376,159.694839 
	C176.971710,160.845261 178.764908,161.938446 180.469910,163.155212 
	C193.512848,172.463226 206.548080,181.782150 219.558365,191.135696 
	C221.281921,192.374786 222.571777,192.758881 224.600235,191.260010 
	C232.178619,185.660156 239.937347,180.302124 247.678070,174.924850 
	C255.379044,169.575195 263.139679,164.311462 271.594666,158.663879 
M173.590286,238.667053 
	C184.210556,238.769028 194.830780,238.884644 205.451309,238.931274 
	C205.964569,238.933533 206.480499,238.328644 207.037888,237.069153 
	C207.043945,228.757263 206.608215,220.410812 207.254456,212.149002 
	C207.549072,208.382721 209.873795,204.735428 211.500992,201.135071 
	C212.060394,199.897324 213.298035,198.966095 214.549072,197.521606 
	C198.157944,185.896164 182.217850,174.590607 165.892563,163.011856 
	C165.119080,165.215057 164.479446,167.037003 163.350525,169.561829 
	C163.253036,188.145660 163.148529,206.729462 163.089325,225.313416 
	C163.087387,225.919373 163.547409,226.526825 163.902573,227.898224 
	C165.022095,232.965088 166.879852,237.386642 173.590286,238.667053 
M265.797028,262.298920 
	C266.859497,266.743042 267.921967,271.187164 269.031982,275.830200 
	C271.077545,273.446808 273.664520,271.238647 275.210938,268.452850 
	C277.926392,263.561096 281.487030,262.039032 287.154388,261.795837 
	C296.182068,261.408356 298.481445,258.528473 298.190308,250.485229 
	C297.775879,239.035110 297.895599,227.554092 298.171448,216.095520 
	C298.306122,210.501022 296.950409,206.396545 290.393768,204.360245 
	C289.746338,204.246216 289.098999,204.033142 288.451477,204.032516 
	C267.093018,204.012070 245.734497,204.000244 224.376114,204.042633 
	C223.279404,204.044815 222.183685,204.537323 220.437134,205.096298 
	C218.575455,207.369202 216.713776,209.642120 214.364441,212.604355 
	C214.244949,225.326263 214.098587,238.048065 214.043503,250.770264 
	C214.037338,252.194824 214.548752,253.621643 214.955994,255.768188 
	C216.980942,257.569031 219.005905,259.369904 221.592499,261.795532 
	C236.092575,261.883759 250.592636,261.971985 265.797028,262.298920 
z"/>
<path fill="#B0DEFF" opacity="1.000000" stroke="none" 
	d="
M274.954163,149.690796 
	C240.699219,150.098679 206.288147,150.076508 171.403442,150.066406 
	C172.053040,149.719238 173.175705,149.048187 174.299622,149.046112 
	C207.315216,148.984970 240.330917,148.989212 273.346619,148.996658 
	C273.830444,148.996765 274.314240,149.168915 274.954163,149.690796 
z"/>
<path fill="#B0DEFF" opacity="1.000000" stroke="none" 
	d="
M220.557709,269.811462 
	C232.857407,269.642487 245.617935,269.536957 258.648895,269.737427 
	C246.285736,269.987213 233.652145,269.931061 220.557709,269.811462 
z"/>
<path fill="#B0DEFF" opacity="1.000000" stroke="none" 
	d="
M173.589981,246.835022 
	C184.137390,246.648621 195.142899,246.520142 206.434891,246.651825 
	C195.830276,246.905624 184.939178,246.899277 173.589981,246.835022 
z"/>
<path fill="#478AC9" opacity="1.000000" stroke="none" 
	d="
M290.028259,196.513153 
	C289.703522,195.276001 289.042206,193.573410 289.039703,191.869873 
	C289.027954,183.793686 289.195953,175.717239 289.543579,167.299530 
	C289.856567,176.654556 289.925934,186.350922 290.028259,196.513153 
z"/>
<path fill="#000000" opacity="1.000000" stroke="none" 
	d="
M291.085144,204.845840 
	C296.950409,206.396545 298.306122,210.501022 298.171448,216.095520 
	C297.895599,227.554092 297.775879,239.035110 298.190308,250.485229 
	C298.481445,258.528473 296.182068,261.408356 287.154388,261.795837 
	C281.487030,262.039032 277.926392,263.561096 275.210938,268.452850 
	C273.664520,271.238647 271.077545,273.446808 269.031982,275.830200 
	C267.921967,271.187164 266.859497,266.743042 265.257263,261.770966 
	C250.155258,261.218903 235.593063,261.194824 221.030853,261.170746 
	C219.005905,259.369904 216.980942,257.569031 214.963943,254.936356 
	C214.931961,240.041351 214.892014,225.978180 214.852081,211.915009 
	C216.713776,209.642120 218.575455,207.369202 221.217834,205.034561 
	C245.027390,204.930496 268.056274,204.888168 291.085144,204.845840 
M271.387756,231.066223 
	C271.242523,232.204544 270.813812,233.392471 271.002808,234.472290 
	C271.694458,238.423935 274.587280,240.682404 278.185516,240.592331 
	C281.837799,240.500885 285.137817,238.693787 285.339294,234.103912 
	C285.541199,229.505432 282.641449,227.150055 278.803131,226.532806 
	C276.069916,226.093277 272.268311,225.743805 271.387756,231.066223 
M249.936356,235.594650 
	C249.976547,239.722931 253.467667,240.745590 256.071869,240.472076 
	C258.527313,240.214188 261.402496,238.228317 262.929504,236.148376 
	C265.450287,232.714905 262.915009,229.528000 260.093170,227.927399 
	C258.091125,226.791824 254.298523,226.387375 252.720093,227.560455 
	C250.854965,228.946625 250.513199,232.382507 249.936356,235.594650 
M236.728561,240.062653 
	C241.026047,239.267181 242.170151,236.174927 241.851807,232.441208 
	C241.604340,229.538620 236.459045,225.512436 233.661926,226.010818 
	C229.735168,226.710495 227.975266,229.295364 228.044403,233.341583 
	C228.135605,238.679276 229.332428,239.830399 236.728561,240.062653 
z"/>
<path fill="#000000" opacity="1.000000" stroke="none" 
	d="
M163.839813,168.858963 
	C164.479446,167.037003 165.119080,165.215057 165.892563,163.011856 
	C182.217850,174.590607 198.157944,185.896164 214.549072,197.521606 
	C213.298035,198.966095 212.060394,199.897324 211.500992,201.135071 
	C209.873795,204.735428 207.549072,208.382721 207.254456,212.149002 
	C206.608215,220.410812 207.043945,228.757263 206.548370,237.534500 
	C195.002319,238.059647 183.945770,238.119461 172.889236,238.179276 
	C166.879852,237.386642 165.022095,232.965088 163.923431,227.035446 
	C163.909470,207.068100 163.874634,187.963531 163.839813,168.858963 
z"/>
<path fill="#000000" opacity="1.000000" stroke="none" 
	d="
M270.874146,159.010056 
	C263.139679,164.311462 255.379044,169.575195 247.678070,174.924850 
	C239.937347,180.302124 232.178619,185.660156 224.600235,191.260010 
	C222.571777,192.758881 221.281921,192.374786 219.558365,191.135696 
	C206.548080,181.782150 193.512848,172.463226 180.469910,163.155212 
	C178.764908,161.938446 176.971710,160.845261 175.214706,159.007050 
	C175.859894,158.214310 176.509705,158.017944 177.159637,158.017548 
	C207.443802,157.998840 237.728012,157.987900 268.012115,158.036316 
	C268.966614,158.037842 269.920166,158.671234 270.874146,159.010056 
z"/>
<path fill="#000000" opacity="1.000000" stroke="none" 
	d="
M281.022156,196.889954 
	C265.266418,196.889954 249.510681,196.889954 233.754974,196.889954 
	C233.576691,196.592392 233.398407,196.294830 233.220139,195.997269 
	C237.795853,192.860092 242.406235,189.772095 246.940262,186.575775 
	C257.164825,179.367813 267.363831,172.123352 277.538940,164.845779 
	C278.873383,163.891327 280.047485,162.076904 281.009033,165.920135 
	C281.032990,176.783463 281.027557,186.836716 281.022156,196.889954 
z"/>
<path fill="#B0DEFF" opacity="1.000000" stroke="none" 
	d="
M271.234406,158.836975 
	C269.920166,158.671234 268.966614,158.037842 268.012115,158.036316 
	C237.728012,157.987900 207.443802,157.998840 177.159637,158.017548 
	C176.509705,158.017944 175.859894,158.214310 175.001404,158.731354 
	C174.185822,158.862167 173.578888,158.580841 172.971939,158.299530 
	C173.179703,157.939316 173.387451,157.579117 173.595200,157.218918 
	C175.190613,157.143433 176.786011,157.002747 178.381454,157.002136 
	C207.958221,156.990891 237.535065,156.972107 267.111511,157.069122 
	C268.607635,157.074020 270.100372,158.108673 271.234406,158.836975 
z"/>
<path fill="#478AC9" opacity="1.000000" stroke="none" 
	d="
M290.739441,204.603043 
	C268.056274,204.888168 245.027390,204.930496 221.542999,204.887177 
	C222.183685,204.537323 223.279404,204.044815 224.376114,204.042633 
	C245.734497,204.000244 267.093018,204.012070 288.451477,204.032516 
	C289.098999,204.033142 289.746338,204.246216 290.739441,204.603043 
z"/>
<path fill="#478AC9" opacity="1.000000" stroke="none" 
	d="
M163.595169,169.210388 
	C163.874634,187.963531 163.909470,207.068100 163.868195,226.653122 
	C163.547409,226.526825 163.087387,225.919373 163.089325,225.313416 
	C163.148529,206.729462 163.253036,188.145660 163.595169,169.210388 
z"/>
<path fill="#B0DEFF" opacity="1.000000" stroke="none" 
	d="
M221.311676,261.483154 
	C235.593063,261.194824 250.155258,261.218903 264.905090,261.651611 
	C250.592636,261.971985 236.092575,261.883759 221.311676,261.483154 
z"/>
<path fill="#478AC9" opacity="1.000000" stroke="none" 
	d="
M214.608261,212.259674 
	C214.892014,225.978180 214.931961,240.041351 214.896011,254.575958 
	C214.548752,253.621643 214.037338,252.194824 214.043503,250.770264 
	C214.098587,238.048065 214.244949,225.326263 214.608261,212.259674 
z"/>
<path fill="#B0DEFF" opacity="1.000000" stroke="none" 
	d="
M173.239761,238.423157 
	C183.945770,238.119461 195.002319,238.059647 206.527023,238.003159 
	C206.480499,238.328644 205.964569,238.933533 205.451309,238.931274 
	C194.830780,238.884644 184.210556,238.769028 173.239761,238.423157 
z"/>
<path fill="#B0DEFF" opacity="1.000000" stroke="none" 
	d="
M281.392883,196.684723 
	C281.027557,186.836716 281.032990,176.783463 281.093658,166.234314 
	C281.431915,170.492966 281.871399,175.244705 281.956848,180.002808 
	C282.055481,185.492096 281.841766,190.987015 281.392883,196.684723 
z"/>
<path fill="#0C66C1" opacity="1.000000" stroke="none" 
	d="
M271.633789,230.737137 
	C272.268311,225.743805 276.069916,226.093277 278.803131,226.532806 
	C282.641449,227.150055 285.541199,229.505432 285.339294,234.103912 
	C285.137817,238.693787 281.837799,240.500885 278.185516,240.592331 
	C274.587280,240.682404 271.694458,238.423935 271.002808,234.472290 
	C270.813812,233.392471 271.242523,232.204544 271.633789,230.737137 
z"/>
<path fill="#0C66C1" opacity="1.000000" stroke="none" 
	d="
M249.723709,235.262238 
	C250.513199,232.382507 250.854965,228.946625 252.720093,227.560455 
	C254.298523,226.387375 258.091125,226.791824 260.093170,227.927399 
	C262.915009,229.528000 265.450287,232.714905 262.929504,236.148376 
	C261.402496,238.228317 258.527313,240.214188 256.071869,240.472076 
	C253.467667,240.745590 249.976547,239.722931 249.723709,235.262238 
z"/>
<path fill="#0C66C1" opacity="1.000000" stroke="none" 
	d="
M236.375778,240.217224 
	C229.332428,239.830399 228.135605,238.679276 228.044403,233.341583 
	C227.975266,229.295364 229.735168,226.710495 233.661926,226.010818 
	C236.459045,225.512436 241.604340,229.538620 241.851807,232.441208 
	C242.170151,236.174927 241.026047,239.267181 236.375778,240.217224 
z"/>
</svg>