<!DOCTYPE svg PUBLIC "-//W3C//DTD SVG 1.1//EN" "http://www.w3.org/Graphics/SVG/1.1/DTD/svg11.dtd">
<!-- Uploaded to: SVG Repo, www.svgrepo.com, Transformed by: SVG Repo Mixer Tools -->
<svg fill="#0466C8" width="800px" height="800px" viewBox="0 0 512 512" id="_35_Compose" data-name="35 Compose" xmlns="http://www.w3.org/2000/svg">
<g id="SVGRepo_bgCarrier" stroke-width="0"/>
<g id="SVGRepo_tracerCarrier" stroke-linecap="round" stroke-linejoin="round"/>
<g id="SVGRepo_iconCarrier"> <path id="Path_46" data-name="Path 46" d="M480,512H32A31.991,31.991,0,0,1,0,480V32A31.991,31.991,0,0,1,32,0H352L288,64H64V448H448V224l64-64V480A31.991,31.991,0,0,1,480,512ZM128,384V288L416,0h32l64,64V96L224,384ZM272,272,448,96,416,64,240,240Zm-80,16-32,32v32h32l32-32Z" fill-rule="evenodd"/> </g>
</svg>